<svg width="443" height="324" viewBox="0 0 443 324" fill="none" xmlns="http://www.w3.org/2000/svg">
<path d="M396.004 210.039C356.444 132.974 314.872 108.356 299.03 105.68C191.139 99.2579 170.268 185.314 124.35 244.718C87.6152 292.242 114.395 311.829 131.735 317.609C165.986 318.144 255.36 317.994 308.021 319.536C373.848 321.462 445.454 306.37 396.004 210.039Z" fill="#4BD0A0" fill-opacity="0.3"/>
<path d="M299.03 105.68L299.06 105.181L299.087 105.183L299.114 105.187L299.03 105.68ZM396.004 210.039L395.559 210.267L396.004 210.039ZM308.021 319.536L308.007 320.035L308.021 319.536ZM131.735 317.609L131.727 318.109L131.65 318.108L131.577 318.083L131.735 317.609ZM124.35 244.718L124.745 245.024L124.35 244.718ZM299.114 105.187C307.17 106.548 321.61 113.443 338.963 129.598C356.33 145.765 376.647 171.235 396.449 209.811L395.559 210.267C375.801 171.778 355.552 146.406 338.282 130.33C320.999 114.24 306.732 107.488 298.947 106.173L299.114 105.187ZM396.449 209.811C408.832 233.933 413.669 253.03 412.875 268.085C412.079 283.165 405.634 294.155 395.549 302.028C385.484 309.886 371.816 314.623 356.579 317.279C341.336 319.936 324.482 320.518 308.007 320.035L308.036 319.036C324.474 319.517 341.255 318.935 356.407 316.294C371.565 313.651 385.051 308.956 394.934 301.24C404.798 293.539 411.096 282.814 411.876 268.032C412.657 253.224 407.901 234.311 395.559 210.267L396.449 209.811ZM308.007 320.035C255.346 318.494 165.999 318.644 131.727 318.109L131.743 317.109C165.974 317.644 255.374 317.494 308.036 319.036L308.007 320.035ZM131.577 318.083C122.849 315.174 111.644 308.76 107.296 296.991C102.937 285.194 105.542 268.232 123.954 244.413L124.745 245.024C106.423 268.728 104.05 285.321 108.234 296.644C112.427 307.994 123.282 314.264 131.893 317.135L131.577 318.083ZM123.954 244.413C135.414 229.587 145.312 213.098 155.418 196.766C165.517 180.446 175.821 164.289 188.073 150.186C200.328 136.079 214.542 124.016 232.471 115.886C250.401 107.756 272.018 103.571 299.06 105.181L299.001 106.179C272.098 104.578 250.646 108.742 232.884 116.797C215.119 124.853 201.016 136.812 188.828 150.842C176.635 164.877 166.368 180.97 156.268 197.292C146.175 213.603 136.245 230.147 124.745 245.024L123.954 244.413Z" fill="black"/>
<path d="M180.645 28.5322L156.08 12.9746" stroke="#27292D" stroke-linecap="round"/>
<path d="M178.65 33.7696L150.228 27.6318" stroke="#27292D" stroke-linecap="round"/>
<path d="M331.54 315.068V280.333C331.54 275.915 327.958 272.333 323.54 272.333H293.301C288.883 272.333 285.301 275.915 285.301 280.333V315.068C285.301 319.486 288.883 323.068 293.301 323.068H323.54C327.958 323.068 331.54 319.486 331.54 315.068Z" fill="#4BD0A0" stroke="#27292D" stroke-linecap="round"/>
<path d="M274.705 298.022C274.705 288.507 280.941 285.881 285.714 285.667C287.332 285.595 288.513 287.009 288.513 288.629C288.513 290.177 287.397 291.484 286.078 292.295C284.392 293.331 282.733 295.156 282.733 298.022C282.733 300.669 284.149 302.27 285.693 303.168C287.168 304.026 288.513 305.413 288.513 307.12C288.513 308.733 287.357 310.152 285.744 310.12C280.968 310.028 274.705 307.556 274.705 298.022Z" fill="#47C497"/>
<path d="M285.714 285.667L285.736 286.167L285.714 285.667ZM285.744 310.12L285.754 309.621L285.744 310.12ZM285.693 303.168L285.442 303.6L285.693 303.168ZM286.078 292.295L286.34 292.721L286.078 292.295ZM285.736 286.167C283.422 286.271 280.792 286.959 278.748 288.734C276.72 290.496 275.205 293.383 275.205 298.022H274.205C274.205 293.146 275.809 289.963 278.092 287.979C280.359 286.01 283.233 285.278 285.692 285.168L285.736 286.167ZM275.205 298.022C275.205 302.67 276.726 305.52 278.756 307.229C280.803 308.953 283.437 309.576 285.754 309.621L285.735 310.62C283.275 310.573 280.39 309.913 278.111 307.994C275.816 306.061 274.205 302.908 274.205 298.022H275.205ZM285.442 303.6C283.781 302.634 282.233 300.886 282.233 298.022H283.233C283.233 300.452 284.517 301.906 285.945 302.736L285.442 303.6ZM282.233 298.022C282.233 294.928 284.035 292.964 285.816 291.869L286.34 292.721C284.75 293.699 283.233 295.383 283.233 298.022H282.233ZM288.013 307.12C288.013 305.686 286.867 304.429 285.442 303.6L285.945 302.736C287.469 303.622 289.013 305.141 289.013 307.12H288.013ZM285.754 309.621C287.024 309.645 288.013 308.521 288.013 307.12H289.013C289.013 308.945 287.691 310.658 285.735 310.62L285.754 309.621ZM285.816 291.869C287.066 291.101 288.013 289.927 288.013 288.629H289.013C289.013 290.426 287.728 291.867 286.34 292.721L285.816 291.869ZM285.692 285.168C287.659 285.08 289.013 286.794 289.013 288.629H288.013C288.013 287.225 287.005 286.11 285.736 286.167L285.692 285.168Z" fill="#27292D"/>
<path d="M291.563 277.391C291.563 277.391 291.563 277.392 291.565 277.394C291.564 277.392 291.563 277.391 291.563 277.391ZM291.7 277.44C291.683 277.451 291.668 277.461 291.654 277.471C291.668 277.48 291.683 277.491 291.7 277.502C291.876 277.613 292.167 277.738 292.59 277.868C293.427 278.124 294.665 278.362 296.223 278.564C299.334 278.968 303.646 279.219 308.42 279.219C313.194 279.219 317.506 278.968 320.617 278.564C322.176 278.362 323.413 278.124 324.251 277.868C324.673 277.738 324.964 277.613 325.14 277.502C325.157 277.491 325.173 277.48 325.186 277.471C325.173 277.461 325.157 277.451 325.14 277.44C324.964 277.329 324.673 277.204 324.251 277.074C323.413 276.817 322.176 276.579 320.617 276.377C317.506 275.974 313.194 275.723 308.42 275.723C303.646 275.723 299.334 275.974 296.223 276.377C294.665 276.579 293.427 276.817 292.59 277.074C292.167 277.204 291.876 277.329 291.7 277.44ZM325.277 277.391C325.277 277.391 325.277 277.392 325.276 277.394C325.277 277.392 325.277 277.391 325.277 277.391ZM325.277 277.55C325.277 277.55 325.277 277.55 325.276 277.548C325.277 277.55 325.277 277.55 325.277 277.55ZM291.565 277.548C291.563 277.55 291.563 277.55 291.563 277.55C291.563 277.55 291.564 277.55 291.565 277.548Z" fill="white" stroke="#27292D"/>
<path d="M282.411 223.846C293.971 226.158 307.993 174.932 313.559 149.029L282.411 167.974L258.971 220.635C261.968 220.742 270.852 221.535 282.411 223.846Z" fill="#27292D"/>
<path d="M217.949 59.7901C211.204 59.7901 205.737 54.3186 205.737 47.5693C205.737 40.82 211.204 35.3486 217.949 35.3486C224.693 35.3486 230.16 40.82 230.16 47.5693C230.16 54.3186 224.693 59.7901 217.949 59.7901Z" fill="white" stroke="#27292D" stroke-miterlimit="10"/>
<path d="M221.979 52.8406C221.979 52.8406 219.729 43.9812 211.329 42.4829" stroke="#27292D" stroke-miterlimit="10"/>
<path d="M214.329 52.8406C214.329 52.8406 215.631 47.5381 218.797 46.8867" stroke="#27292D" stroke-miterlimit="10"/>
<path d="M248.476 18.8726C254.215 18.8726 259.827 20.5553 264.62 23.7126C269.413 26.87 273.177 31.3637 275.446 36.6383C279.785 36.8119 283.889 38.6591 286.898 41.7929C289.907 44.9267 291.588 49.1041 291.589 53.4503C291.589 55.6605 291.154 57.849 290.309 59.8909C289.464 61.9329 288.225 63.7882 286.663 65.3511C285.101 66.9139 283.248 68.1536 281.207 68.9994C279.167 69.8452 276.98 70.2805 274.771 70.2805C272.799 70.2823 270.841 69.9365 268.989 69.2591C263.511 74.6296 256.145 77.6332 248.476 77.6234C244.622 77.6237 240.805 76.8642 237.243 75.3882C233.682 73.9121 230.446 71.7485 227.72 69.0208C224.994 66.2931 222.832 63.0548 221.357 59.4908C219.881 55.9269 219.122 52.107 219.122 48.2493C219.122 40.4581 222.215 32.986 227.72 27.4768C233.225 21.9676 240.691 18.8726 248.476 18.8726Z" fill="white" stroke="#27292D" stroke-miterlimit="10"/>
<path d="M286.328 51.0845C286.328 51.0845 277.215 51.0115 272.468 60.7256" stroke="#27292D" stroke-miterlimit="10"/>
<path d="M281.963 59.0476L276.295 55.4309" stroke="#27292D" stroke-miterlimit="10"/>
<path d="M275.446 36.6385C275.446 36.6385 280.523 36.331 285.322 40.349C285.322 40.349 288.47 25.3037 281.27 14.4952C274.071 3.68673 272.467 11.6446 272.467 11.6446C272.467 11.6446 263.573 -2.61645 261.011 7.73601C261.011 7.73601 248.57 -6.47554 246.169 6.38621C246.169 6.38621 232.521 -3.51541 231.62 9.68768C231.62 9.68768 217.221 -0.670006 220.372 17.9426C220.372 17.9426 207.923 12.2387 213.321 25.7597L217.943 35.3539C217.943 35.3539 220.314 35.4529 221.796 35.974C221.796 35.974 230.649 17.213 249.656 20.0792C269.272 23.0497 275.446 36.6385 275.446 36.6385Z" fill="white" stroke="#27292D" stroke-miterlimit="10"/>
<path d="M255.721 52.0954C254.66 52.0954 253.799 51.2344 253.799 50.1723C253.799 49.1103 254.66 48.2493 255.721 48.2493C256.782 48.2493 257.643 49.1103 257.643 50.1723C257.643 51.2344 256.782 52.0954 255.721 52.0954Z" fill="#27292D" stroke="#27292D" stroke-miterlimit="10"/>
<path d="M230.6 46.329C229.539 46.329 228.678 45.468 228.678 44.406C228.678 43.3439 229.539 42.4829 230.6 42.4829C231.661 42.4829 232.521 43.3439 232.521 44.406C232.521 45.468 231.661 46.329 230.6 46.329Z" fill="#27292D" stroke="#27292D" stroke-miterlimit="10"/>
<path d="M241.064 51.087C240.003 51.087 239.142 50.2261 239.142 49.164C239.142 48.102 240.003 47.241 241.064 47.241C242.125 47.241 242.985 48.102 242.985 49.164C242.985 50.2261 242.125 51.087 241.064 51.087Z" fill="white" stroke="#27292D" stroke-miterlimit="10"/>
<path d="M261.888 74.382H261.948C263.153 74.382 264.308 74.8608 265.159 75.713C266.011 76.5652 266.489 77.7211 266.489 78.9264V82.8167C266.489 83.7194 266.766 84.6003 267.283 85.34C267.8 86.0798 268.532 86.6425 269.379 86.9519C278.011 90.1127 303.454 101.229 310.779 124.565C319.631 152.819 307.459 187.902 263.544 188.272C219.63 188.642 194.837 173.894 194.837 173.894C194.837 173.894 175.674 164.555 170.011 152.866C164.348 141.177 150.543 141.177 150.543 141.177C150.543 141.177 173.799 89.9563 224.611 85.2816C225.718 85.1824 226.747 84.6677 227.491 83.8407C228.235 83.0137 228.638 81.9358 228.621 80.8233L228.587 78.6867C228.576 78.0795 228.688 77.4764 228.914 76.913C229.14 76.3496 229.478 75.8374 229.905 75.4067C230.333 74.976 230.843 74.6355 231.404 74.4053C231.966 74.1752 232.568 74.06 233.175 74.0667L261.888 74.382Z" fill="white" stroke="#27292D" stroke-miterlimit="10"/>
<path d="M270.735 135.074C270.735 135.074 266.903 137.289 266.004 140.189" stroke="#27292D" stroke-miterlimit="10"/>
<path d="M215.928 147.318L211.139 141.302C209.978 139.842 208.412 138.759 206.637 138.189C204.861 137.619 202.957 137.588 201.165 138.099L197.954 139.014L215.928 147.318Z" fill="white" stroke="#27292D" stroke-miterlimit="10"/>
<path d="M200.058 147.878L197.886 148.379C197.144 148.549 196.371 148.525 195.642 148.309C194.912 148.093 194.25 147.693 193.72 147.146" fill="white"/>
<path d="M200.058 147.878L197.886 148.379C197.144 148.549 196.371 148.525 195.642 148.309C194.912 148.093 194.25 147.693 193.72 147.146" stroke="#27292D" stroke-miterlimit="10"/>
<path d="M223.984 180.671C223.984 180.671 211.265 182.586 207.201 175.405C203.136 168.224 199.306 157.686 199.306 157.686H194.169C193.291 157.686 192.434 157.415 191.714 156.91C190.995 156.406 190.447 155.693 190.146 154.867C189.926 154.26 189.845 153.611 189.911 152.968C189.977 152.325 190.187 151.706 190.525 151.156C190.864 150.606 191.322 150.139 191.866 149.792C192.41 149.444 193.025 149.224 193.666 149.147L196.312 148.835C200.251 148.364 204.228 149.334 207.508 151.568L208.406 152.18L205.107 149.934C203.347 148.736 201.321 147.986 199.205 147.751L192.552 147.011C191.678 146.914 190.86 146.532 190.224 145.923C189.588 145.315 189.17 144.514 189.034 143.644C188.945 143.072 188.98 142.487 189.138 141.93C189.296 141.372 189.573 140.856 189.949 140.415C190.325 139.975 190.792 139.622 191.318 139.379C191.844 139.137 192.416 139.011 192.995 139.011H199.856C202.609 139.011 205.288 139.91 207.484 141.573L213.908 146.432L225.474 151.464L223.984 180.671Z" fill="white" stroke="#27292D" stroke-miterlimit="10"/>
<path d="M203.604 168.198L198.711 165.157C197.467 164.383 196.415 163.336 195.633 162.096C194.852 160.855 194.363 159.454 194.201 157.996L194.168 157.689" fill="white"/>
<path d="M203.604 168.198L198.711 165.157C197.467 164.383 196.415 163.336 195.633 162.096C194.852 160.855 194.363 159.454 194.201 157.996L194.168 157.689" stroke="#27292D" stroke-miterlimit="10"/>
<path d="M259.205 74.3533C260.283 76.5037 260.843 78.8763 260.843 81.2819V87.0145" stroke="#27292D" stroke-miterlimit="10"/>
<path d="M252.441 74.3533L252.469 74.4549C253.16 76.9197 253.51 79.4673 253.511 82.0271V87.004" stroke="#27292D" stroke-miterlimit="10"/>
<path d="M246.535 74.2153V87.0067" stroke="#27292D" stroke-miterlimit="10"/>
<path d="M240.408 74.2153C239.557 76.8357 239.124 79.5741 239.125 82.3295V87.0041" stroke="#27292D" stroke-miterlimit="10"/>
<path d="M234.282 74.2153C233.432 76.836 232.999 79.5742 232.999 82.3295V87.0041" stroke="#27292D" stroke-miterlimit="10"/>
<path d="M113.984 321.207L107.16 315.923" stroke="#27292D" stroke-miterlimit="10"/>
<path d="M186.215 131.929L205.67 155.451C208.474 158.838 206.063 163.969 201.665 163.969L131.349 158.043L103.216 122.405L169.712 123.929C172.875 124.001 175.986 124.753 178.833 126.133C181.68 127.513 184.198 129.49 186.215 131.929Z" fill="white" stroke="#27292D" stroke-miterlimit="10"/>
<path d="M168.737 124.159L201.666 163.969L133.118 158.979C129.078 158.684 125.144 157.551 121.565 155.653C117.986 153.754 114.841 151.132 112.329 147.951L95.6344 126.798C95.324 126.406 95.1317 125.934 95.0798 125.436C95.028 124.939 95.1189 124.437 95.3419 123.99C95.5648 123.542 95.9105 123.167 96.3386 122.909C96.7667 122.651 97.2594 122.521 97.759 122.533L168.737 124.159Z" fill="white" stroke="#27292D" stroke-miterlimit="10"/>
<path d="M109.567 122.694L168.76 124.041C170.039 124.071 171.31 123.823 172.484 123.314C173.658 122.806 174.708 122.048 175.562 121.094C176.416 120.14 177.052 119.012 177.428 117.788C177.804 116.564 177.911 115.273 177.74 114.004L171.965 70.7887C171.202 65.0822 165.992 59.717 150.956 61.8511L102.448 70.6349C101.306 70.8058 100.209 71.2036 99.2218 71.805C98.2349 72.4064 97.3782 73.1993 96.7021 74.137C96.0259 75.0746 95.544 76.1381 95.2847 77.2649C95.0253 78.3917 94.9938 79.559 95.1918 80.6982L101.222 115.502C101.566 117.483 102.586 119.282 104.108 120.594C105.629 121.906 107.559 122.648 109.567 122.694Z" fill="white" stroke="#27292D" stroke-miterlimit="10"/>
<path d="M99.095 122.694L168.641 124.276L161.493 70.7888C161.312 69.4334 160.863 68.1277 160.173 66.9477C159.482 65.7676 158.564 64.7368 157.472 63.9152C156.379 63.0937 155.135 62.4978 153.81 62.1623C152.485 61.8267 151.107 61.7581 149.756 61.9607L91.974 70.635C90.8314 70.8062 89.7346 71.2043 88.748 71.8058C87.7615 72.4074 86.9052 73.2002 86.2294 74.1379C85.5535 75.0755 85.0718 76.1389 84.8126 77.2655C84.5533 78.3922 84.5218 79.5593 84.7199 80.6983L90.7501 115.503C91.0939 117.483 92.1138 119.282 93.6357 120.594C95.1576 121.906 97.0871 122.648 99.095 122.694Z" fill="white" stroke="#27292D" stroke-miterlimit="10"/>
<path d="M206.709 157.462H196.281" stroke="#27292D" stroke-miterlimit="10"/>
<path d="M199.666 148.191H188.613" stroke="#27292D" stroke-miterlimit="10"/>
<path d="M190.363 136.945H179.313" stroke="#27292D" stroke-miterlimit="10"/>
<path d="M182.398 128.302H172.163" stroke="#27292D" stroke-miterlimit="10"/>
<path d="M115.95 97.3413C115.169 92.6118 117.244 88.3302 120.584 87.778C123.923 87.2259 127.264 90.6124 128.044 95.3419C128.825 100.071 126.751 104.353 123.411 104.905C120.071 105.457 116.731 102.071 115.95 97.3413Z" stroke="#27292D" stroke-miterlimit="10"/>
<path d="M283.639 185.142L281.605 191.985C278.466 202.55 272.001 211.819 263.173 218.409C254.344 225 243.625 228.561 232.611 228.561C220.345 228.562 208.488 224.147 199.205 216.124L169.838 190.747C166.738 188.069 162.743 186.659 158.65 186.8C154.557 186.941 150.668 188.623 147.761 191.508L136.916 202.27L109.228 169.513L130.256 151.73C138.313 144.915 148.522 141.176 159.071 141.176C169.223 141.176 179.073 144.64 186.994 150.995L223.985 180.671L283.639 185.142Z" fill="white" stroke="#27292D" stroke-miterlimit="10"/>
<path d="M141.542 237.217C141.542 236.91 141.542 188.678 141.557 188.376C141.793 182.245 144.393 176.443 148.81 172.188C153.228 167.933 159.12 165.555 165.251 165.553C171.366 165.553 177.244 167.917 181.659 172.151C186.073 176.384 188.684 182.161 188.945 188.274C188.958 188.611 188.966 236.876 188.966 237.217H141.542Z" fill="white" stroke="#27292D" stroke-miterlimit="10"/>
<path d="M174.994 260.385C174.994 260.385 176.889 260.111 177.975 266.081C179.061 272.051 184.745 307.579 184.745 307.579C185.446 307.579 186.118 307.858 186.614 308.354C187.109 308.85 187.388 309.523 187.388 310.224V318.562C187.387 319.263 187.108 319.935 186.613 320.431C186.117 320.926 185.445 321.204 184.745 321.204H109.758C109.057 321.204 108.386 320.926 107.891 320.431C107.395 319.935 107.117 319.263 107.117 318.562V311.227C107.117 310.88 107.185 310.536 107.318 310.215C107.45 309.894 107.645 309.603 107.89 309.357C108.135 309.112 108.426 308.917 108.747 308.784C109.067 308.651 109.411 308.582 109.758 308.582C109.758 308.582 118.316 286.338 139.802 279.297L149.881 265.596C149.881 265.596 151.844 260.385 154.094 260.385H174.994Z" fill="white" stroke="#27292D" stroke-miterlimit="10"/>
<path d="M109.802 308.583H173.883" stroke="#27292D" stroke-miterlimit="10"/>
<path d="M119.038 321.212L107.16 311.926" stroke="#27292D" stroke-miterlimit="10"/>
<path d="M122.745 321.141L107.498 309.902" stroke="#27292D" stroke-miterlimit="10"/>
<path d="M170.964 260.382L164.697 271.933C160.885 278.958 155.269 284.837 148.429 288.964L147.369 289.605C143.208 292.117 138.441 293.444 133.582 293.443H119.288" stroke="#27292D" stroke-miterlimit="10"/>
<path d="M166.176 266.534H144.396C143.567 266.534 142.773 266.864 142.187 267.45C141.601 268.036 141.272 268.832 141.272 269.661V270.857C141.272 271.686 141.601 272.482 142.187 273.068C142.773 273.654 143.567 273.984 144.396 273.984H169.301V269.661C169.301 268.832 168.972 268.036 168.386 267.45C167.8 266.864 167.005 266.534 166.176 266.534Z" fill="white" stroke="#27292D" stroke-miterlimit="10"/>
<path d="M163.985 271.347H142.205C141.376 271.347 140.581 271.676 139.995 272.263C139.409 272.849 139.08 273.645 139.08 274.474V275.67C139.08 276.499 139.409 277.294 139.995 277.881C140.581 278.467 141.376 278.797 142.205 278.797H167.109V274.474C167.109 273.645 166.78 272.849 166.194 272.263C165.608 271.676 164.814 271.347 163.985 271.347Z" fill="white" stroke="#27292D" stroke-miterlimit="10"/>
<path d="M158.177 275.475H136.397C135.568 275.475 134.774 275.804 134.188 276.39C133.602 276.977 133.273 277.772 133.273 278.601V279.797C133.273 280.627 133.602 281.422 134.188 282.008C134.774 282.595 135.568 282.924 136.397 282.924H161.302V278.601C161.302 277.772 160.973 276.977 160.387 276.39C159.801 275.804 159.006 275.475 158.177 275.475Z" fill="white" stroke="#27292D" stroke-miterlimit="10"/>
<path d="M154.139 237.218H175.008V260.385H154.139V237.218Z" fill="white" stroke="#27292D" stroke-miterlimit="10"/>
<path d="M172.271 237.218V260.382" stroke="#27292D" stroke-miterlimit="10"/>
<path d="M169.301 237.218V260.385" stroke="#27292D" stroke-miterlimit="10"/>
<path d="M166.436 237.218V260.382" stroke="#27292D" stroke-miterlimit="10"/>
<path d="M163.573 237.218V260.382" stroke="#27292D" stroke-miterlimit="10"/>
<path d="M160.498 237.218V260.385" stroke="#27292D" stroke-miterlimit="10"/>
<path d="M157.428 237.218V260.382" stroke="#27292D" stroke-miterlimit="10"/>
<path d="M116.048 177.67L129.562 193.584L111.923 208.587L98.4082 192.673L116.048 177.67Z" fill="white" stroke="#27292D" stroke-miterlimit="10"/>
<path d="M127.893 191.498L110.255 206.501" stroke="#27292D" stroke-miterlimit="10"/>
<path d="M125.969 189.233L108.328 204.237" stroke="#27292D" stroke-miterlimit="10"/>
<path d="M124.116 187.053L106.479 202.054" stroke="#27292D" stroke-miterlimit="10"/>
<path d="M122.261 184.869L104.623 199.87" stroke="#27292D" stroke-miterlimit="10"/>
<path d="M120.27 182.524L102.632 197.53" stroke="#27292D" stroke-miterlimit="10"/>
<path d="M118.279 180.181L100.642 195.185" stroke="#27292D" stroke-miterlimit="10"/>
<path d="M112.026 208.589L113.442 211.413L95.2163 242.275L92.9224 244.144C93.2433 244.624 93.3814 245.204 93.3117 245.777C93.2419 246.351 92.9689 246.881 92.5423 247.27L86.4235 252.875C85.9575 253.305 85.341 253.534 84.7075 253.513C84.0741 253.491 83.4745 253.221 83.0386 252.761L21.174 187.787C20.8321 187.428 20.5721 186.998 20.4118 186.529C20.2515 186.059 20.1948 185.56 20.2455 185.067C20.2962 184.573 20.4532 184.096 20.7056 183.669C20.958 183.241 21.3 182.874 21.7078 182.592L25.2723 180.129C25.8604 179.723 26.5605 179.51 27.2751 179.521C27.9896 179.532 28.683 179.765 29.2586 180.189C29.2586 180.189 51.4215 171.992 78.7893 194.56L98.4891 192.684L112.026 208.589Z" fill="white" stroke="#27292D" stroke-miterlimit="10"/>
<path d="M88.8412 186.69H89.7212C91.4468 186.69 92.8457 188.09 92.8457 189.817V205.243C92.8457 206.97 91.4468 208.37 89.7212 208.37H88.8412C87.1156 208.37 85.7167 206.97 85.7167 205.243V189.817C85.7167 188.09 87.1156 186.69 88.8412 186.69Z" fill="white" stroke="#27292D" stroke-miterlimit="10"/>
<path d="M80.3431 186.69H81.2232C82.9488 186.69 84.3477 188.09 84.3477 189.817V205.243C84.3477 206.97 82.9488 208.37 81.2232 208.37H80.3431C78.6175 208.37 77.2186 206.97 77.2186 205.243V189.817C77.2186 188.09 78.6175 186.69 80.3431 186.69Z" fill="white" stroke="#27292D" stroke-miterlimit="10"/>
<path d="M71.8421 183.715H72.7222C74.4478 183.715 75.8467 185.115 75.8467 186.841V202.267C75.8467 203.994 74.4478 205.394 72.7222 205.394H71.8421C70.1165 205.394 68.7177 203.994 68.7177 202.267V186.841C68.7177 185.115 70.1165 183.715 71.8421 183.715Z" fill="white" stroke="#27292D" stroke-miterlimit="10"/>
<path d="M83.2725 237.218L29.279 180.181" stroke="#27292D" stroke-miterlimit="10"/>
<path d="M25.2949 180.121L23.9097 190.633" stroke="#27292D" stroke-miterlimit="10"/>
<path d="M33.04 184.152L31.3528 198.447" stroke="#27292D" stroke-miterlimit="10"/>
<path d="M202.058 218.388L188.892 186.919V207.149L202.058 218.388Z" fill="#27292D"/>
<path d="M131.094 195.268L141.69 185.635V197.837L136.873 202.332L131.094 195.268Z" fill="#27292D"/>
<path d="M106.69 140.68L137.516 146.46C135.204 147.488 127.561 153.739 124.029 156.736C119.662 155.194 115.788 151.598 114.396 149.992L106.69 140.68Z" fill="#27292D"/>
<path d="M279.765 197.516L258.251 183.066L283.618 184.993L279.765 197.516Z" fill="#27292D"/>
<path d="M175.085 246.324V237.012H154.213L175.085 246.324Z" fill="#27292D"/>
<path d="M123.066 199.121L116.002 177.929L129.488 193.663L123.066 199.121Z" fill="#27292D"/>
<path d="M212.333 22.5139L225.819 29.8993L221.966 36.0003L218.113 35.3581C214.773 29.9635 212.868 24.5476 212.333 22.5139Z" fill="#27292D"/>
<path d="M263.467 137.79L255.118 140.038C254.048 140.466 249.595 140.873 240.348 139.075C231.1 137.277 226.861 143.249 225.898 146.46L207.274 133.295L213.054 130.084L207.274 122.698H219.797L218.834 117.24L230.714 122.377L225.577 106.643L234.889 110.818L239.384 98.9368L244.843 110.818L252.871 107.285L248.054 121.735L261.54 114.992L260.577 122.056L274.063 123.341L261.219 132.974L263.467 137.79Z" fill="white"/>
<path d="M272.686 139.188C272.686 139.188 259.771 142.419 238.741 139.029C237.153 138.774 235.529 138.858 233.976 139.275C232.423 139.692 230.976 140.433 229.729 141.449C228.483 142.465 227.465 143.734 226.742 145.172C226.02 146.609 225.609 148.183 225.537 149.791L223.975 184.225" stroke="#27292D" stroke-miterlimit="10"/>
<path d="M255.736 58.4263C255.736 58.4263 253.004 62.6136 247.246 64.0201C242.102 65.2765 237.857 62.0894 237.857 62.0894" stroke="black" stroke-miterlimit="10"/>
</svg>
